<?xml version="1.0" encoding="utf-8"?>
<!-- Generator: Adobe Illustrator 26.3.1, SVG Export Plug-In . SVG Version: 6.00 Build 0)  -->
<svg version="1.1" id="Ebene_1" xmlns="http://www.w3.org/2000/svg" xmlns:xlink="http://www.w3.org/1999/xlink" x="0px" y="0px"
	 viewBox="0 0 581.4 581.4" style="enable-background:new 0 0 581.4 581.4;" xml:space="preserve">
<g>
	<path class="loading_fill" d="M240.1,54.6c121.1,0,219.2,105.7,219.2,236c0,27.9,22.6,50.6,50.6,50.6c27.9,0,50.6-22.6,50.6-50.6
		c0-149-120.8-269.8-269.8-269.8C143.8,20.9,24.4,138.3,21,284.4C24.1,156.9,121,54.6,240.1,54.6z"/>
	<path class="loading_fill" d="M341.3,526.7c-121.1,0-219.2-105.7-219.2-236c0-27.9-22.6-50.6-50.6-50.6s-50.6,22.6-50.6,50.6
		c0,149,120.8,269.8,269.8,269.8c146.9,0,266.3-117.4,269.7-263.4C557.3,424.5,460.4,526.7,341.3,526.7z"/>
</g>
</svg>
